<svg xmlns="http://www.w3.org/2000/svg" width="92" height="92" viewBox="0 0 256 256" fill="#000000">
  <!-- Amazon Fire TV Stick - flame icon -->
  <path d="M183.89,153.34a57.6,57.6,0,0,1-46.56,46.67A8.1,8.1,0,0,1,136,200a8,8,0,0,1-1.32-15.89c16.57-2.79,30.63-16.85,33.44-33.45a8,8,0,0,1,15.78,2.68ZM224,144A96,96,0,0,1,32,144c0-41.89,25.27-75.67,64-91.56V32a16,16,0,0,1,24.87-13.32l40,26.66A8,8,0,0,1,164,52a8,8,0,0,1-4.44,7.15L116,84.8V56.36C83.76,71.53,64,105.21,64,144a64,64,0,0,0,128,0c0-20.44-5.28-37.71-15.69-51.35a8,8,0,1,1,12.93-9.42C201.82,100.47,208,121.07,208,144Z"/>
  <text x="128" y="245" font-family="Inter,Arial,sans-serif" font-size="28" font-weight="700" fill="#000000" text-anchor="middle">Fire TV</text>
</svg>
