<svg xmlns="http://www.w3.org/2000/svg" width="92" height="92" viewBox="0 0 256 256" fill="#000000">
  <!-- Smart TV icon for LG -->
  <path d="M208,40H48A24,24,0,0,0,24,64V176a24,24,0,0,0,24,24H208a24,24,0,0,0,24-24V64A24,24,0,0,0,208,40Zm8,136a8,8,0,0,1-8,8H48a8,8,0,0,1-8-8V64a8,8,0,0,1,8-8H208a8,8,0,0,1,8,8Zm-48,48a8,8,0,0,1-8,8H96a8,8,0,0,1,0-16h64A8,8,0,0,1,168,224Z"/>
  <text x="128" y="245" font-family="Inter,Arial,sans-serif" font-size="32" font-weight="700" fill="#000000" text-anchor="middle">LG</text>
</svg>
