<svg xmlns="http://www.w3.org/2000/svg" width="92" height="92" viewBox="0 0 256 256" fill="#000000">
  <!-- Streaming device icon -->
  <path d="M128,24A104,104,0,0,0,36,178.16V176a8,8,0,0,1,16,0,76,76,0,0,1,76-76,8,8,0,0,1,0,16,60,60,0,0,0-60,60,8,8,0,0,1,16,0,44,44,0,0,1,44-44,8,8,0,0,1,0,16,28,28,0,0,0-28,28,8,8,0,0,1,16,0,12,12,0,0,1,12-12,8,8,0,0,1,0,16"/>
  <circle cx="52" cy="204" r="12" fill="#000000"/>
  <text x="128" y="245" font-family="Inter,Arial,sans-serif" font-size="28" font-weight="700" fill="#000000" text-anchor="middle">Roku</text>
</svg>
