<svg xmlns="http://www.w3.org/2000/svg" width="92" height="92" viewBox="0 0 256 256" fill="#000000">
  <!-- Smart TV icon -->
  <path d="M232,64V176a24,24,0,0,1-24,24H152v16h24a8,8,0,0,1,0,16H80a8,8,0,0,1,0-16h24V200H48a24,24,0,0,1-24-24V64A24,24,0,0,1,48,40H208A24,24,0,0,1,232,64Zm-16,0a8,8,0,0,0-8-8H48a8,8,0,0,0-8,8V176a8,8,0,0,0,8,8H208a8,8,0,0,0,8-8Z"/>
  <text x="128" y="245" font-family="Inter,Arial,sans-serif" font-size="26" font-weight="700" fill="#000000" text-anchor="middle">Samsung</text>
</svg>
